<svg xmlns="http://www.w3.org/2000/svg" width="229.37" height="47.33" viewBox="0 0 229.37 47.33">
  <g id="Grupo_3" data-name="Grupo 3" transform="translate(-91.469 -207.1)">
    <g id="Grupo_1" data-name="Grupo 1" transform="translate(91.469 207.1)">
      <path id="Trazado_1" data-name="Trazado 1" d="M104.9,218.537a5.512,5.512,0,0,0-1.818-1.151,6.036,6.036,0,0,0-2.225-.412h-1.9V228.04h1.209c.223,0,.436-.007.647-.024s.424-.029.633-.05a5.73,5.73,0,0,0,2.014-.523,5.565,5.565,0,0,0,1.633-1.151,5.161,5.161,0,0,0,1.093-1.676,5.479,5.479,0,0,0,.4-2.1,5.386,5.386,0,0,0-.451-2.223A5.465,5.465,0,0,0,104.9,218.537Z" transform="translate(-81.005 -193.297)" fill="#fda631"/>
      <path id="Trazado_2" data-name="Trazado 2" d="M132.676,224.13,114.664,207.9a3.108,3.108,0,0,0-4.156,0L92.5,224.13a3.093,3.093,0,0,0-1.026,2.3v24.892a3.1,3.1,0,0,0,3.1,3.1H130.6a3.1,3.1,0,0,0,3.1-3.1V226.434A3.1,3.1,0,0,0,132.676,224.13Zm-10.481,15.1a10.338,10.338,0,0,1-1.105,2.561,10.689,10.689,0,0,1-3.937,3.791,11.116,11.116,0,0,1-2.626,1.043,11.538,11.538,0,0,1-2.921.367h-7.093a.9.9,0,0,1-.458-.115c-.137-.077-.2-.24-.2-.489v-20.1a.71.71,0,0,1,.163-.489.628.628,0,0,1,.5-.187h7.093a11.245,11.245,0,0,1,2.913.374,11.027,11.027,0,0,1,4.841,2.719,10.233,10.233,0,0,1,1.722,2.158,11.019,11.019,0,0,1,1.108,2.575,10.855,10.855,0,0,1,0,5.791Z" transform="translate(-91.469 -207.1)" fill="#fda631"/>
    </g>
    <g id="Grupo_2" data-name="Grupo 2" transform="translate(142.299 224.269)">
      <path id="Trazado_3" data-name="Trazado 3" d="M112.667,215.894a.7.7,0,0,1,.156-.482.6.6,0,0,1,.477-.18h9.294a6.982,6.982,0,0,1,2.774.554,7.188,7.188,0,0,1,2.259,1.5,7.062,7.062,0,0,1,1.52,2.223,6.765,6.765,0,0,1,.554,2.712,6.516,6.516,0,0,1-.266,1.863,7.144,7.144,0,0,1-.741,1.655,7.039,7.039,0,0,1-1.132,1.4,7.371,7.371,0,0,1-1.429,1.072l3.7,6.961c.067.137.151.295.259.477a.986.986,0,0,1,.158.472.429.429,0,0,1-.151.355.638.638,0,0,1-.41.122h-4.935a.726.726,0,0,1-.441-.144.665.665,0,0,1-.252-.388l-3.5-6.575h-2.331v6.489q0,.619-.662.619H113.3a.685.685,0,0,1-.463-.151.588.588,0,0,1-.17-.468Zm11.263,6.388a2.492,2.492,0,0,0-.158-.863,2.8,2.8,0,0,0-.446-.791,2.6,2.6,0,0,0-.688-.6,2.391,2.391,0,0,0-.892-.316q-.406-.029-.755-.05c-.235-.014-.492-.022-.772-.022h-1.985v5.28h2.647c.175,0,.328,0,.463-.014s.281-.024.446-.043a2.3,2.3,0,0,0,.906-.295,2.354,2.354,0,0,0,.674-.59,2.558,2.558,0,0,0,.42-.791A2.937,2.937,0,0,0,123.93,222.282Z" transform="translate(-112.667 -212.901)" fill="#161615"/>
      <path id="Trazado_4" data-name="Trazado 4" d="M136.086,232.776a9.585,9.585,0,0,1-2.849,1.82,8.692,8.692,0,0,1-3.352.655,9.772,9.772,0,0,1-6.805-2.714,9.579,9.579,0,0,1-2.1-3,9.044,9.044,0,0,1-.777-3.755,9.688,9.688,0,0,1,.309-2.453,9.531,9.531,0,0,1,2.256-4.132,8.816,8.816,0,0,1,1.822-1.487,8.927,8.927,0,0,1,2.187-.964,8.8,8.8,0,0,1,2.487-.348,8.511,8.511,0,0,1,2.319.319,9.012,9.012,0,0,1,2.108.892,9.151,9.151,0,0,1,1.806,1.381,9.313,9.313,0,0,1,1.408,1.762,8.535,8.535,0,0,1,.916,2.041,7.82,7.82,0,0,1,.324,2.24q0,.748-.022,1.223a1.4,1.4,0,0,1-.223.755,1.091,1.091,0,0,1-.669.388,6.572,6.572,0,0,1-1.376.108H125.5a3.576,3.576,0,0,0,.583,1.539,3.659,3.659,0,0,0,1.014.986,4.065,4.065,0,0,0,1.22.525,5.2,5.2,0,0,0,1.225.158,5.491,5.491,0,0,0,1.065-.108,7.581,7.581,0,0,0,1.055-.288,6.01,6.01,0,0,0,.938-.417,3.169,3.169,0,0,0,.683-.5,2.85,2.85,0,0,1,.4-.281.706.706,0,0,1,.353-.094.674.674,0,0,1,.379.13,2.884,2.884,0,0,1,.441.374l1.525,1.726a.96.96,0,0,1,.2.338,1.218,1.218,0,0,1,.043.309.785.785,0,0,1-.161.5A1.8,1.8,0,0,1,136.086,232.776Zm-6.923-11.984a2.751,2.751,0,0,0-1.084.223,4.1,4.1,0,0,0-.986.6,5.149,5.149,0,0,0-.83.849,5.334,5.334,0,0,0-.6.964h7.354a8.475,8.475,0,0,0-.655-1.036,4.444,4.444,0,0,0-.808-.834,3.5,3.5,0,0,0-1.033-.561A4.167,4.167,0,0,0,129.164,220.792Z" transform="translate(-102.133 -211.267)" fill="#161615"/>
      <path id="Trazado_5" data-name="Trazado 5" d="M148.061,233.9a1.284,1.284,0,0,1-.086.468,1.129,1.129,0,0,1-.662.554,1.943,1.943,0,0,1-.374.043H144.1a1.271,1.271,0,0,1-.489-.079.755.755,0,0,1-.3-.223,1.3,1.3,0,0,1-.194-.352q-.079-.209-.165-.453l-.187-.647a8.387,8.387,0,0,1-.885.763,6.852,6.852,0,0,1-1.093.669,6.939,6.939,0,0,1-1.28.475,5.546,5.546,0,0,1-1.417.18,9.413,9.413,0,0,1-2.511-.331,9.234,9.234,0,0,1-4.136-2.41,9.378,9.378,0,0,1-2.4-4.172,9.625,9.625,0,0,1-.331-2.539,9.432,9.432,0,0,1,2.734-6.712,9.331,9.331,0,0,1,6.647-2.729,6.546,6.546,0,0,1,1.662.2,6.456,6.456,0,0,1,1.41.544,5.678,5.678,0,0,1,1.158.83,6.4,6.4,0,0,1,.906,1.043l.417-1.309q.144-.36.237-.583a1.036,1.036,0,0,1,.2-.331.536.536,0,0,1,.266-.144,2.127,2.127,0,0,1,.446-.036h2.144a1.947,1.947,0,0,1,.374.043.718.718,0,0,1,.374.2.921.921,0,0,1,.288.36,1.159,1.159,0,0,1,.086.46Zm-14.171-8.057a5.253,5.253,0,0,0,.295,1.777,4.217,4.217,0,0,0,.842,1.432,4,4,0,0,0,1.316.957,4.046,4.046,0,0,0,1.7.352,4.521,4.521,0,0,0,1.791-.352,4.575,4.575,0,0,0,1.439-.957,4.337,4.337,0,0,0,.957-1.432,4.689,4.689,0,0,0,0-3.532,4.651,4.651,0,0,0-.957-1.468,4.534,4.534,0,0,0-1.439-1,4.369,4.369,0,0,0-1.791-.367,3.913,3.913,0,0,0-1.7.367,3.983,3.983,0,0,0-1.316,1,4.53,4.53,0,0,0-.842,1.468A5.228,5.228,0,0,0,133.889,225.841Z" transform="translate(-90.241 -211.267)" fill="#161615"/>
      <path id="Trazado_6" data-name="Trazado 6" d="M138.221,215.353a1.284,1.284,0,0,1,.228-.777.917.917,0,0,1,.791-.317h3.527a.692.692,0,0,1,.3.079,1.064,1.064,0,0,1,.295.223,1.271,1.271,0,0,1,.228.345,1.046,1.046,0,0,1,.094.446v21.494a1.059,1.059,0,0,1-.307.827,1.147,1.147,0,0,1-.8.281h-3.34a.975.975,0,0,1-.791-.281,1.279,1.279,0,0,1-.228-.827Z" transform="translate(-76.946 -214.26)" fill="#161615"/>
      <path id="Trazado_7" data-name="Trazado 7" d="M145.948,215.894a.684.684,0,0,1,.165-.482.6.6,0,0,1,.468-.18h14.274a.64.64,0,0,1,.489.187.7.7,0,0,1,.17.5v3.558a.749.749,0,0,1-.17.465.606.606,0,0,1-.506.223h-9.321v3.568h7.194a.754.754,0,0,1,.451.13.5.5,0,0,1,.18.432V227.4a.6.6,0,0,1-.158.388.568.568,0,0,1-.46.185h-7.206v3.686h9.666a.577.577,0,0,1,.647.659v3.614a.354.354,0,0,1-.115.259q-.058.4-.59.4H146.581a.674.674,0,0,1-.46-.151.589.589,0,0,1-.173-.468Z" transform="translate(-66.145 -212.901)" fill="#161615"/>
      <path id="Trazado_8" data-name="Trazado 8" d="M156.976,229.329a4.19,4.19,0,0,0,.842.655,6.362,6.362,0,0,0,.87.432,5.112,5.112,0,0,0,.734.237,2.392,2.392,0,0,0,.432.072q.273,0,.7-.022a3.887,3.887,0,0,0,.813-.13,1.689,1.689,0,0,0,.669-.352.867.867,0,0,0,.281-.691,1.154,1.154,0,0,0-.158-.643,1.29,1.29,0,0,0-.46-.4,3.93,3.93,0,0,0-.741-.3c-.293-.084-.621-.185-.986-.3a11.845,11.845,0,0,1-2.849-1.108,6.394,6.394,0,0,1-1.777-1.446,4.708,4.708,0,0,1-.914-1.719,7.141,7.141,0,0,1-.259-1.942,4.91,4.91,0,0,1,.475-2.172A4.8,4.8,0,0,1,156,217.826a6.4,6.4,0,0,1,2.1-1.079,9.782,9.782,0,0,1,4.417-.23,6.754,6.754,0,0,1,1.511.475,7.449,7.449,0,0,1,1.4.834,11.115,11.115,0,0,1,1.36,1.216.9.9,0,0,1,.252.539.746.746,0,0,1-.324.54q-.561.46-1.072.906t-1.057.993a.8.8,0,0,1-.345.18.7.7,0,0,1-.331-.007.97.97,0,0,1-.3-.144,1.248,1.248,0,0,1-.259-.245,2.528,2.528,0,0,0-1.151-.758,4.3,4.3,0,0,0-1.209-.192,2.213,2.213,0,0,0-1.122.245.753.753,0,0,0-.388.746.8.8,0,0,0,.281.585,2.005,2.005,0,0,0,.619.338,5.407,5.407,0,0,0,.777.209q.41.079.755.18a22.38,22.38,0,0,1,2.374.906,7.239,7.239,0,0,1,1.87,1.2,4.968,4.968,0,0,1,1.23,1.7,5.965,5.965,0,0,1,.439,2.417,5.558,5.558,0,0,1-.568,2.547,5.452,5.452,0,0,1-1.561,1.885,7.157,7.157,0,0,1-2.352,1.165,10.263,10.263,0,0,1-2.928.4,10.681,10.681,0,0,1-1.813-.156,8.519,8.519,0,0,1-1.784-.511,8.077,8.077,0,0,1-1.64-.906,6.431,6.431,0,0,1-1.381-1.345,1.5,1.5,0,0,1-.237-.424,1.187,1.187,0,0,1-.072-.439,1.061,1.061,0,0,1,.086-.4.775.775,0,0,1,.252-.309l1.856-1.858a.66.66,0,0,1,.611-.2A2.037,2.037,0,0,1,156.976,229.329Z" transform="translate(-55.606 -211.316)" fill="#161615"/>
      <path id="Trazado_9" data-name="Trazado 9" d="M162.73,216.642a.786.786,0,0,1,.295-.669,3.322,3.322,0,0,1,.842-.424l3.266-1.137a.694.694,0,0,1,.137-.014h.122a.758.758,0,0,1,.712.307,1.624,1.624,0,0,1,.18.815l-.014,3.956h1.971a1.042,1.042,0,0,1,.748.273,1.08,1.08,0,0,1,.288.82v2.777a1.194,1.194,0,0,1-.288.885,1.026,1.026,0,0,1-.748.281h-1.971l.014,12.143a1.047,1.047,0,0,1-.317.827,1.277,1.277,0,0,1-.878.281h-3.252a.979.979,0,0,1-1.108-1.108l-.014-12.143h-1.482q-1.108,0-1.108-1.165V220.57a.973.973,0,0,1,1.108-1.093h1.482Z" transform="translate(-46.326 -214.067)" fill="#161615"/>
      <path id="Trazado_10" data-name="Trazado 10" d="M184.8,233.9a1.284,1.284,0,0,1-.086.468,1.129,1.129,0,0,1-.662.554,1.943,1.943,0,0,1-.374.043h-2.834a1.27,1.27,0,0,1-.489-.079.755.755,0,0,1-.3-.223,1.3,1.3,0,0,1-.194-.352q-.079-.209-.165-.453l-.187-.647a8.391,8.391,0,0,1-.885.763,6.853,6.853,0,0,1-1.093.669,6.94,6.94,0,0,1-1.28.475,5.546,5.546,0,0,1-1.417.18,9.412,9.412,0,0,1-2.511-.331,9.234,9.234,0,0,1-4.136-2.41,9.379,9.379,0,0,1-2.4-4.172,9.628,9.628,0,0,1-.331-2.539,9.432,9.432,0,0,1,2.734-6.712,9.332,9.332,0,0,1,6.647-2.729,6.545,6.545,0,0,1,1.662.2,6.458,6.458,0,0,1,1.41.544,5.679,5.679,0,0,1,1.158.83,6.4,6.4,0,0,1,.906,1.043l.417-1.309q.144-.36.237-.583a1.036,1.036,0,0,1,.2-.331.536.536,0,0,1,.266-.144,2.127,2.127,0,0,1,.446-.036h2.144a1.947,1.947,0,0,1,.374.043.718.718,0,0,1,.374.2.921.921,0,0,1,.288.36,1.159,1.159,0,0,1,.086.46Zm-14.171-8.057a5.253,5.253,0,0,0,.295,1.777,4.217,4.217,0,0,0,.842,1.432,4,4,0,0,0,1.316.957,4.046,4.046,0,0,0,1.7.352,4.521,4.521,0,0,0,1.791-.352,4.575,4.575,0,0,0,1.439-.957,4.336,4.336,0,0,0,.957-1.432,4.689,4.689,0,0,0,0-3.532,4.649,4.649,0,0,0-.957-1.468,4.534,4.534,0,0,0-1.439-1,4.37,4.37,0,0,0-1.791-.367,3.913,3.913,0,0,0-1.7.367,3.983,3.983,0,0,0-1.316,1,4.53,4.53,0,0,0-.842,1.468A5.228,5.228,0,0,0,170.627,225.841Z" transform="translate(-38.886 -211.267)" fill="#161615"/>
      <path id="Trazado_11" data-name="Trazado 11" d="M176.938,216.642a.786.786,0,0,1,.295-.669,3.322,3.322,0,0,1,.842-.424l3.266-1.137a.694.694,0,0,1,.137-.014h.122a.758.758,0,0,1,.712.307,1.624,1.624,0,0,1,.18.815l-.014,3.956h1.971a1.042,1.042,0,0,1,.748.273,1.08,1.08,0,0,1,.288.82v2.777a1.194,1.194,0,0,1-.288.885,1.026,1.026,0,0,1-.748.281h-1.971l.014,12.143a1.047,1.047,0,0,1-.316.827,1.277,1.277,0,0,1-.878.281h-3.252a.979.979,0,0,1-1.108-1.108l-.014-12.143h-1.482q-1.108,0-1.108-1.165V220.57a.973.973,0,0,1,1.108-1.093h1.482Z" transform="translate(-26.465 -214.067)" fill="#161615"/>
      <path id="Trazado_12" data-name="Trazado 12" d="M195.527,232.776a9.585,9.585,0,0,1-2.849,1.82,8.692,8.692,0,0,1-3.352.655,9.761,9.761,0,0,1-6.805-2.714,9.58,9.58,0,0,1-2.1-3,9.007,9.007,0,0,1-.777-3.755,9.8,9.8,0,0,1,.307-2.453,9.568,9.568,0,0,1,2.259-4.132,8.752,8.752,0,0,1,1.822-1.487,8.927,8.927,0,0,1,2.187-.964,8.8,8.8,0,0,1,2.487-.348,8.511,8.511,0,0,1,2.319.319,9.012,9.012,0,0,1,2.108.892,9.363,9.363,0,0,1,3.213,3.144,8.632,8.632,0,0,1,.916,2.041,7.819,7.819,0,0,1,.321,2.24c0,.5,0,.906-.019,1.223a1.382,1.382,0,0,1-.225.755,1.078,1.078,0,0,1-.667.388,6.571,6.571,0,0,1-1.376.108H184.939a3.577,3.577,0,0,0,.583,1.539,3.626,3.626,0,0,0,1.014.986,4.065,4.065,0,0,0,1.22.525,5.179,5.179,0,0,0,1.225.158,5.448,5.448,0,0,0,1.062-.108,7.523,7.523,0,0,0,1.057-.288,5.98,5.98,0,0,0,.935-.417,3.13,3.13,0,0,0,.686-.5,2.848,2.848,0,0,1,.4-.281.7.7,0,0,1,.353-.094.679.679,0,0,1,.379.13,2.768,2.768,0,0,1,.439.374l1.527,1.726a1,1,0,0,1,.2.338,1.218,1.218,0,0,1,.043.309.785.785,0,0,1-.161.5A1.8,1.8,0,0,1,195.527,232.776ZM188.6,220.792a2.75,2.75,0,0,0-1.084.223,4.1,4.1,0,0,0-.986.6,5.149,5.149,0,0,0-.83.849,5.334,5.334,0,0,0-.6.964h7.354a8.776,8.776,0,0,0-.655-1.036,4.445,4.445,0,0,0-.808-.834,3.5,3.5,0,0,0-1.033-.561A4.167,4.167,0,0,0,188.6,220.792Z" transform="translate(-19.042 -211.267)" fill="#161615"/>
    </g>
  </g>
</svg>
